<svg xmlns="http://www.w3.org/2000/svg" width="70.348" height="70.167" viewBox="0 0 70.348 70.167"><path d="M65.5,35.3a2.379,2.379,0,0,0-2.335-1.93h-2.3L60.7,32.355a2.39,2.39,0,0,0-1.987-1.971c-.226-.036-.454-.059-.679-.09a7.255,7.255,0,0,0-.9-5.3,4.866,4.866,0,0,0-3.526-6.51,10.119,10.119,0,0,0-9.886-8.261c-.119,0-.225.015-.338.019a4.838,4.838,0,0,0-7.4-.92A8.163,8.163,0,0,0,31.538,8a8.257,8.257,0,0,0-6.491,3.2,5.924,5.924,0,0,0-7.571,5.323,4.9,4.9,0,0,0-3,4.51,4.837,4.837,0,0,0,.119,1.014,9.571,9.571,0,0,0-1.141,8.206c-.319.044-.645.083-.951.128a2.393,2.393,0,0,0-2,1.969l-.169,1.016h-2.3A2.379,2.379,0,0,0,5.7,35.289L.489,62.026A3.568,3.568,0,0,0,4,66.274H28.8c.985,1.625,3.977,2.379,6.8,2.379,2.791,0,5.755-.736,6.768-2.379H67.2a3.568,3.568,0,0,0,3.51-4.247ZM18.074,23.182a2.512,2.512,0,0,1,1.284-4.664,2.467,2.467,0,0,1,2,1.009,1.189,1.189,0,1,0,1.91-1.418,4.8,4.8,0,0,0-3.373-1.9,3.615,3.615,0,0,1,3.526-2.863,3.707,3.707,0,0,1,.433.048,7.813,7.813,0,0,0-.25.744,1.189,1.189,0,0,0,2.3.595,5.783,5.783,0,0,1,.617-1.489,5.873,5.873,0,0,1,5.016-2.863,5.776,5.776,0,0,1,3.15.951,4.834,4.834,0,0,0-.279,1.559,1.189,1.189,0,1,0,2.379,0,2.5,2.5,0,1,1,5,0,1.189,1.189,0,1,0,2.379,0c0-.092-.023-.178-.027-.27a7.72,7.72,0,0,1,7.043,5.953,4.826,4.826,0,0,0-1.539.767,1.189,1.189,0,1,0,1.427,1.9,2.507,2.507,0,0,1,3.677,3.243,2.537,2.537,0,0,1-1.126,1.042,1.189,1.189,0,0,0,.507,2.26,1.174,1.174,0,0,0,.5-.113,4.884,4.884,0,0,0,.888-.555,5.079,5.079,0,0,1-1.006,5.072l-.029.03a5.136,5.136,0,0,1-6.065,1.113,4.72,4.72,0,0,1-.576-.359,4.051,4.051,0,0,0,.314-4.186,1.19,1.19,0,1,0-2.125,1.07,1.771,1.771,0,0,1-.573,2.242,1.795,1.795,0,0,1-2.583-.659,1.19,1.19,0,0,0-2.128,1.064A4.123,4.123,0,0,0,44.458,34.8a4.079,4.079,0,0,0,1.493-.294,7.039,7.039,0,0,0,1.394.951,7.326,7.326,0,0,0,5.493.508,7.58,7.58,0,0,1-4.9,3,1.189,1.189,0,0,0,.187,2.363,1.266,1.266,0,0,0,.189-.014,9.773,9.773,0,0,0,2.11-.616,10.634,10.634,0,0,1,.887,2.042,1.226,1.226,0,0,1,.062.384,1.283,1.283,0,0,1-.78,1.18,1.346,1.346,0,0,1-1.535-.413,7.591,7.591,0,0,0-3.481-2.313c-2.57-.861-3.562-1.63-3.983-2.468a11.417,11.417,0,0,0,1.823-.381,1.189,1.189,0,0,0-.7-2.274,9.013,9.013,0,0,1-2.053.377,8.827,8.827,0,0,1-3.941-.595,1.189,1.189,0,0,0-1.333.332,5.092,5.092,0,0,1-8.213-5.955,1.193,1.193,0,0,0-2.047-1.226,7.427,7.427,0,0,0-.68,1.531,1.784,1.784,0,0,1-1.69-1.753v-.03a1.176,1.176,0,0,0-1.189-1.174,1.2,1.2,0,0,0-1.189,1.2,4.139,4.139,0,0,0,3.693,4.1,7.466,7.466,0,0,0,.108,1.189,7.268,7.268,0,0,1-8.223-9.953,4.794,4.794,0,0,0,.885.705,1.189,1.189,0,0,0,1.227-2.037Zm-5.233,9.553c.548-.081,1.114-.152,1.677-.226a9.6,9.6,0,0,0,10.43,4.231,7.45,7.45,0,0,0,11.669,1.978,11.417,11.417,0,0,0,2.482.45c.574,2.179,2.235,3.5,5.723,4.668a5.271,5.271,0,0,1,2.421,1.595,3.788,3.788,0,0,0,2.873,1.35,3.612,3.612,0,0,0,1.412-.288,3.662,3.662,0,0,0,2.223-3.367A3.528,3.528,0,0,0,53.57,42a13,13,0,0,0-1.051-2.42,10.025,10.025,0,0,0,3.952-6.044,7.45,7.45,0,0,0,.685-.959c.4.051.8.1,1.2.163l4.293,25.824a40.823,40.823,0,0,0-25.859,0V43.678a1.189,1.189,0,0,0-2.379,0V58.57a40.83,40.83,0,0,0-25.86-.01ZM3.073,63.458a1.18,1.18,0,0,1-.25-.975L8.031,35.746h1.9L6.2,58.174a2.387,2.387,0,0,0,3.07,2.657,39.787,39.787,0,0,1,19.643-1.246L28.56,63.9H4a1.2,1.2,0,0,1-.926-.438ZM35.6,66.274c-2.865,0-4.509-.847-4.75-1.224l.409-4.935A25.414,25.414,0,0,1,35.084,61.4a1.2,1.2,0,0,0,.514.119,1.182,1.182,0,0,0,.515-.119,25.332,25.332,0,0,1,3.826-1.292l.409,4.943c-.241.378-1.885,1.225-4.75,1.225Zm32.525-2.816a1.2,1.2,0,0,1-.926.438H42.64l-.357-4.319a39.8,39.8,0,0,1,19.651,1.257,2.386,2.386,0,0,0,3.059-2.663L61.265,35.747h1.9l5.209,26.735A1.18,1.18,0,0,1,68.123,63.458Z" transform="translate(-0.424 1.514)" fill="#be91e1"/><path d="M26.748,23.2a1.189,1.189,0,0,0-.084,1.679,7.171,7.171,0,0,0,3.812,2.2,3.543,3.543,0,0,1-2.895,1.493,1.189,1.189,0,0,0,0,2.379,5.9,5.9,0,0,0,5.541-3.814,7.177,7.177,0,0,0,5.871-5.709,1.189,1.189,0,1,0-2.336-.447,4.74,4.74,0,0,1-1.969,3.02,4.855,4.855,0,0,1-6.26-.714,1.189,1.189,0,0,0-1.679-.084Z" transform="translate(4.484 3.783)" fill="#be91e1"/><path d="M23.389,22.66a1.189,1.189,0,0,0,1.189-1.189,3.092,3.092,0,0,1,3.092-3.092,1.189,1.189,0,0,0,0-2.379A5.477,5.477,0,0,0,22.2,21.471a1.189,1.189,0,0,0,1.189,1.189Z" transform="translate(3.698 3.028)" fill="#be91e1"/><path d="M31.379,2.379V1.189a1.189,1.189,0,0,0-2.379,0V2.379a1.189,1.189,0,1,0,2.379,0Z" transform="translate(4.985)" fill="#be91e1"/><path d="M46.657,7.234,45.468,8.423A1.189,1.189,0,1,0,47.149,10.1l1.189-1.189a1.189,1.189,0,1,0-1.682-1.682Z" transform="translate(8.033 1.3)" fill="#be91e1"/><path d="M14.264,10.453a1.189,1.189,0,0,0,.841-2.03L13.915,7.234a1.189,1.189,0,1,0-1.682,1.682L13.423,10.1a1.189,1.189,0,0,0,.841.348Z" transform="translate(1.743 1.3)" fill="#be91e1"/><path d="M21.989,6.582a1.206,1.206,0,0,0,.455-.09,1.189,1.189,0,0,0,.643-1.554l-1.366-3.3a1.189,1.189,0,1,0-2.2.911l1.365,3.3A1.189,1.189,0,0,0,21.989,6.582Z" transform="translate(3.172 0.167)" fill="#be91e1"/><path d="M40.429.993a1.189,1.189,0,0,0-1.553.643l-1.366,3.3a1.189,1.189,0,0,0,.643,1.556,1.206,1.206,0,0,0,.455.09,1.189,1.189,0,0,0,1.1-.734l1.365-3.3A1.189,1.189,0,0,0,40.429.993Z" transform="translate(6.578 0.171)" fill="#be91e1"/><path d="M50.515,18.178a1.189,1.189,0,0,0,.455-.092l3.3-1.365a1.189,1.189,0,1,0-.91-2.2l-3.3,1.365a1.189,1.189,0,0,0,.455,2.289Z" transform="translate(8.831 2.732)" fill="#be91e1"/><path d="M9.933,18.086a1.19,1.19,0,0,0,.911-2.2l-3.3-1.365a1.189,1.189,0,0,0-.91,2.2Z" transform="translate(0.613 2.732)" fill="#be91e1"/></svg>