<svg xmlns="http://www.w3.org/2000/svg" width="360.244" height="361" viewBox="0 0 360.244 361"><path d="M350.363,264.2l-50.239-50.239C284.872,198.713,260.547,201.611,249,217.4a31.08,31.08,0,0,0-4.5,9.123c-5.383,16.149-23.325,25.12-39.474,21.531-35.885-8.971-84.33-55.622-93.3-93.3-5.383-16.149,5.383-34.091,21.531-39.474,23.325-7.177,30.5-37.679,12.56-55.622L95.579,9.42C81.225-3.14,59.694-3.14,47.134,9.42L13.043,43.511c-34.091,35.885,3.589,130.98,87.918,215.31s179.425,123.8,215.31,87.918l34.091-34.091C362.923,298.294,362.923,276.763,350.363,264.2Z" transform="translate(-0.039 0.5)" fill="#be91e1" stroke="#000" stroke-width="1" opacity="0.05"/></svg>