<svg xmlns="http://www.w3.org/2000/svg" width="7.344" height="23.5" viewBox="0 0 7.344 23.5">
    <defs>
        <style>
            .cls-1{fill:#9d6ad1}
        </style>
    </defs>
    <g id="Icon" transform="translate(-176)">
        <path id="Контур_92" d="M179.672 206.688a3.676 3.676 0 0 1-3.672-3.672v-7.344a3.672 3.672 0 0 1 7.344 0v7.344a3.676 3.676 0 0 1-3.672 3.672zm0-13.219a2.206 2.206 0 0 0-2.2 2.2v7.344a2.2 2.2 0 0 0 4.406 0v-7.344a2.206 2.206 0 0 0-2.206-2.2z" class="cls-1" transform="translate(0 -183.188)"/>
        <path id="Контур_93" d="M179.672 7.344a3.672 3.672 0 1 1 3.672-3.672 3.676 3.676 0 0 1-3.672 3.672zm0-5.875a2.2 2.2 0 1 0 2.2 2.2 2.206 2.206 0 0 0-2.2-2.2z" class="cls-1"/>
    </g>
</svg>
