<svg xmlns="http://www.w3.org/2000/svg" width="40" height="40" viewBox="0 0 40 40"><path d="M27.5,0h-15A12.5,12.5,0,0,0,0,12.5v15A12.5,12.5,0,0,0,12.5,40h15A12.5,12.5,0,0,0,40,27.5v-15A12.5,12.5,0,0,0,27.5,0Zm8.75,27.5a8.76,8.76,0,0,1-8.75,8.75h-15A8.76,8.76,0,0,1,3.75,27.5v-15A8.76,8.76,0,0,1,12.5,3.75h15a8.76,8.76,0,0,1,8.75,8.75Z" transform="translate(0 0)" fill="#262626"/><g transform="translate(8.609 8.609)"><path d="M139.391,128a11.391,11.391,0,1,0,11.391,11.391A11.391,11.391,0,0,0,139.391,128Zm0,18.51a7.119,7.119,0,1,1,7.119-7.119A7.129,7.129,0,0,1,139.391,146.51Z" transform="translate(-128 -128)" fill="#262626"/></g><g transform="translate(29.125 7.839)"><circle cx="1.518" cy="1.518" r="1.518" fill="#262626"/></g></svg>