<svg xmlns="http://www.w3.org/2000/svg" width="64.449" height="80.933" viewBox="0 0 64.449 80.933"><path d="M108.423,71.615v7.968a1.349,1.349,0,1,1-2.7,0V71.615A11.219,11.219,0,0,0,94.5,60.39a8.282,8.282,0,0,1-7.125-4,1.349,1.349,0,0,1,2.3-1.4A5.6,5.6,0,0,0,94.5,57.692,13.915,13.915,0,0,1,108.423,71.615Zm3.958-24.774a5.455,5.455,0,0,0-.293-6.525l-2.581-3.177A2.781,2.781,0,0,1,109,34.581l1.526-5.063a5.481,5.481,0,0,0-2.219-6.15l-3.033-2.041a2.808,2.808,0,0,1-1.161-3.073,5.556,5.556,0,0,0-5.19-6.992L97.578,11.2a4.9,4.9,0,0,1-4.64-3.886l-.095-.47a5.6,5.6,0,0,0-8.241-3.7A2.95,2.95,0,0,1,81.11,2.7l-1.127-1.1a5.655,5.655,0,0,0-7.869,0L69.652,4a2.9,2.9,0,0,1-1.563.788L63,5.633A7.257,7.257,0,0,0,57.109,14.7l1,3.589a2.755,2.755,0,0,1-1.138,3.022l-3.09,2.08a5.431,5.431,0,0,0-2.2,6.094l1.544,5.123a2.731,2.731,0,0,1-.5,2.511L50.1,40.344a5.4,5.4,0,0,0-.291,6.466l2.525,3.743a2.723,2.723,0,0,1-.141,3.248l-.374.463a6.227,6.227,0,0,0,.5,8.389,1.349,1.349,0,0,0,1.888-1.928,3.539,3.539,0,0,1-.288-4.768l.374-.463a5.408,5.408,0,0,0,.278-6.45L52.048,45.3a2.722,2.722,0,0,1,.148-3.256l2.622-3.227a5.427,5.427,0,0,0,.991-4.991L54.265,28.7a2.746,2.746,0,0,1,1.122-3.077l3.089-2.08a5.449,5.449,0,0,0,2.231-5.984l-1-3.589a4.555,4.555,0,0,1,3.732-5.68l5.089-.841A5.58,5.58,0,0,0,71.54,5.931L74,3.521a2.942,2.942,0,0,1,4.094,0l1.127,1.1a5.662,5.662,0,0,0,6.7.874A2.9,2.9,0,0,1,90.2,7.38l.095.47a7.588,7.588,0,0,0,7.17,6.05l1.341.057a2.859,2.859,0,0,1,2.7,3.578,5.5,5.5,0,0,0,2.254,6.03l3.033,2.041a2.8,2.8,0,0,1,1.143,3.133L106.413,33.8a5.476,5.476,0,0,0,1,5.036l2.581,3.177a2.772,2.772,0,0,1,.151,3.316l-2.483,3.682a5.458,5.458,0,0,0,.281,6.51A4.19,4.19,0,0,1,109,57.432a1.349,1.349,0,1,0,2.636-.575,6.713,6.713,0,0,0-1.6-3.026,2.773,2.773,0,0,1-.144-3.308Zm-13.8,17.872a30.185,30.185,0,0,1-27-5.271,8.305,8.305,0,0,0,4.437-6.711A18.056,18.056,0,0,0,99.149,35.568c0-.03,0-7.006,0-7.036A13.5,13.5,0,0,0,85.66,15.042H81.032a11.312,11.312,0,0,0-10.439,6.513c-1.016,2.379-.58,3.969-.929,5.848-.573,3.089-3.087,6.018-7.473,8.708a1.349,1.349,0,1,0,1.41,2.3c5.064-3.105,8-6.643,8.715-10.515.4-2.162-.025-3.45.757-5.281a8.589,8.589,0,0,1,7.958-4.875H85.66A10.8,10.8,0,0,1,96.451,28.532v6.9a15.347,15.347,0,0,1-29.315,6.356A1.349,1.349,0,0,0,64.682,42.9a18.075,18.075,0,0,0,8.669,8.8v.364a5.624,5.624,0,0,1-5.636,5.622A13.915,13.915,0,0,0,53.791,71.615v7.968a1.349,1.349,0,0,0,2.7,0V71.615A11.219,11.219,0,0,1,67.714,60.39c.248,0,.494-.012.736-.034a32.918,32.918,0,0,0,30.855,6.956,1.349,1.349,0,0,0-.723-2.6Z" transform="translate(-48.876)" fill="#be91e1"/></svg>