<svg xmlns="http://www.w3.org/2000/svg" width="78.337" height="78.337" viewBox="0 0 78.337 78.337"><path d="M73.99,32.656H56.107L55.466,20.23a1.53,1.53,0,0,0-1.528-1.451H44.093V15.031a15.033,15.033,0,0,0-30.066,0v3.747H4.181A1.53,1.53,0,0,0,2.653,20.23L.009,71.458a6.543,6.543,0,0,0,6.535,6.879H73.99a4.352,4.352,0,0,0,4.348-4.348V37a4.352,4.352,0,0,0-4.348-4.348Zm-56.9-17.625a11.973,11.973,0,0,1,23.946,0v3.747H17.087ZM4.018,74.193a3.451,3.451,0,0,1-.953-2.577L5.634,21.839h8.392v6.229a1.53,1.53,0,0,0,3.06,0V21.839H41.033v6.229a1.53,1.53,0,1,0,3.06,0V21.839h8.392l.558,10.817H41.829A4.352,4.352,0,0,0,37.481,37V57.416H15.529A1.53,1.53,0,0,0,14,58.946V75.278H6.544a3.452,3.452,0,0,1-2.526-1.084Zm13.041,1.085v-14.8H37.481v14.8ZM75.277,73.99a1.289,1.289,0,0,1-1.288,1.288H41.829a1.289,1.289,0,0,1-1.288-1.288V37a1.289,1.289,0,0,1,1.288-1.288H73.99A1.289,1.289,0,0,1,75.277,37Z" transform="translate(0 -0.001)" fill="#be91e1"/><path d="M316.52,314.875a8.087,8.087,0,0,0-5.6-2.138,7.016,7.016,0,0,0-5.093,1.933,7,7,0,0,0-5.086-1.933,7.818,7.818,0,0,0-8.033,8.2,10.592,10.592,0,0,0,1.556,5.686c.94,1.589,3.036,3.635,6.23,6.083,1.252.959,2.382,1.756,3.111,2.257,1.543,1.059,1.7,1.157,2.217,1.157h.007c.514,0,.678-.1,2.214-1.152.729-.5,1.861-1.293,3.114-2.251,3.2-2.444,5.3-4.494,6.247-6.094a10.589,10.589,0,0,0,1.553-5.686A8.1,8.1,0,0,0,316.52,314.875Zm-1.752,10.193c-1.424,2.407-6.826,6.309-8.944,7.717-2.116-1.412-7.512-5.321-8.929-7.717a7.494,7.494,0,0,1-1.129-4.128,4.791,4.791,0,0,1,4.973-5.143,3.72,3.72,0,0,1,3.577,1.893,1.707,1.707,0,0,0,1.507.9h0a1.707,1.707,0,0,0,1.507-.9,3.734,3.734,0,0,1,3.587-1.895,4.793,4.793,0,0,1,4.977,5.143A7.494,7.494,0,0,1,314.768,325.068Z" transform="translate(-247.922 -264.888)" fill="#be91e1"/><path d="M308.609,273.039H327.4a1.53,1.53,0,1,0,0-3.06H308.609a1.53,1.53,0,1,0,0,3.06Z" transform="translate(-260.096 -228.672)" fill="#be91e1"/></svg>