<svg xmlns="http://www.w3.org/2000/svg" width="80.543" height="80.543" viewBox="0 0 80.543 80.543"><path d="M11.939,55.439a1.19,1.19,0,0,0-1.189,1.189V61.9a1.189,1.189,0,0,0,2.379,0V56.628A1.19,1.19,0,0,0,11.939,55.439Z" transform="translate(-6.672 -20.986)" fill="#be91e1"/><path d="M29.1,62.1A11.385,11.385,0,1,0,40.483,73.485,11.385,11.385,0,0,0,29.1,62.1Zm0,20.391A9.006,9.006,0,1,1,38.1,73.485,9.006,9.006,0,0,1,29.1,82.491Z" transform="translate(-8.902 -23.12)" fill="#be91e1"/><path d="M80.025,61.844H64.094l.126-1.229V60.6l1.631-15.837a.068.068,0,0,1,0-.012l1.328-12.862A1.19,1.19,0,0,0,66,30.578H44.379a9.312,9.312,0,0,0-6.8-5.472V19.023a1.19,1.19,0,0,0-1.192-1.189H28.172V12.779h6.742A1.189,1.189,0,0,0,36.1,11.59,5.716,5.716,0,0,0,30.986,5.9L20.331,4.757a1.189,1.189,0,0,0-1.316,1.183v5.65A1.19,1.19,0,0,0,20.2,12.779h1.51v5.055H13.5a1.19,1.19,0,0,0-1.189,1.189v6.083A9.359,9.359,0,0,0,4.75,34.276v45.75a5.274,5.274,0,0,0,5.268,5.268H39.876a5.239,5.239,0,0,0,2.931-.893,1.186,1.186,0,0,0,1.147.893H84.1A1.19,1.19,0,0,0,85.293,84.1V67.111a5.274,5.274,0,0,0-5.268-5.268Zm2.889,5.268v.17H58.785v-.17a2.892,2.892,0,0,1,2.889-2.889H80.025A2.892,2.892,0,0,1,82.914,67.111Zm-21.24-5.268a5.274,5.274,0,0,0-5.268,5.268v6.919H45.028L43.751,61.667H61.72l-.018.177ZM42.119,45.83H63.352L61.965,59.288H43.506L43.3,57.275ZM63.6,43.451H41.87L40.788,32.957h23.89ZM21.394,7.263l9.339,1a3.343,3.343,0,0,1,2.775,2.14H21.393Zm2.7,5.516h1.7v5.055h-1.7ZM35.2,20.213V24.93H14.694V20.213Zm4.676,62.7H10.018a2.892,2.892,0,0,1-2.889-2.889V34.276A6.974,6.974,0,0,1,14.1,27.309H35.8A6.946,6.946,0,0,1,41.7,30.578H39.468a1.189,1.189,0,0,0-1.183,1.312l2.7,26.129.266,2.583v.007l1.516,14.672v4.744a2.892,2.892,0,0,1-2.889,2.889Zm5.268-2.889V76.41H56.406v6.5H45.144Zm37.77,2.889H58.785V69.66H82.914Z" transform="translate(-4.75 -4.75)" fill="#be91e1"/><path d="M100.025,102.583c-2.311,0-4.192,2.262-4.192,5.041s1.881,5.041,4.192,5.041,4.192-2.262,4.192-5.041S102.336,102.583,100.025,102.583Zm0,7.7c-.982,0-1.813-1.219-1.813-2.662s.831-2.662,1.813-2.662,1.813,1.219,1.813,2.662S101.007,110.287,100.025,110.287Z" transform="translate(-33.925 -36.087)" fill="#be91e1"/></svg>