<svg xmlns="http://www.w3.org/2000/svg" width="80.467" height="79.125" viewBox="0 0 80.467 79.125"><path d="M70.026,28a8.495,8.495,0,0,0-6.568,3.108l-.033-.033-7.074,7.074a12.6,12.6,0,0,1-1.378-7.277,1.342,1.342,0,0,0-2.367-1.039l-24.052,29.4L.5,81.943A1.343,1.343,0,0,0,0,82.986,20.139,20.139,0,0,0,20.117,103.1a1.343,1.343,0,0,0,1.043-.5L40.621,78.564l5.37,5.37a1.34,1.34,0,0,0,2.249-.623l1.146-4.584,4.584-1.146a1.341,1.341,0,0,0,.623-2.249l-5.256-5.256,24.032-19.67,3.657-3.657a11.668,11.668,0,0,0,3.442-8.309A10.452,10.452,0,0,0,70.026,28Zm-8.3,8.572a8,8,0,0,0,5.265,7.035l-2.778,2.778a19.308,19.308,0,0,1-4.251-3.239,19.991,19.991,0,0,1-2.193-2.616ZM19.485,100.409A17.457,17.457,0,0,1,2.694,83.616L26.445,64.389,38.714,76.656ZM41.873,72.754,40.411,74.56,28.541,62.692l1.807-1.463a1.354,1.354,0,0,0,.2-.193l2.682-3.279L45.345,69.877,42.067,72.56A1.3,1.3,0,0,0,41.873,72.754Zm9.148,2.8-3.066.767a1.341,1.341,0,0,0-.976.976l-.767,3.067-3.894-3.894,1.554-1.919,3.379-2.766Zm-3.59-7.382-12.5-12.5L52.348,34.385a19.506,19.506,0,0,0,5.713,10.656,19.511,19.511,0,0,0,10.657,5.713Zm27.7-23.318-3.32,3.328a11.905,11.905,0,0,1-4.974-.628L70.686,43.7a1.341,1.341,0,0,0-.948-2.289,5.366,5.366,0,0,1-5.34-5.9,5.566,5.566,0,0,1,5.628-4.833,7.767,7.767,0,0,1,7.759,7.759A9.006,9.006,0,0,1,75.128,44.853Z" transform="translate(0 -23.977)" fill="#be91e1"/><path d="M46.892,4A38.92,38.92,0,0,0,9.612,54.006l2.57-.765A36.24,36.24,0,0,1,57.241,8.182l.765-2.571A38.916,38.916,0,0,0,46.892,4Z" transform="translate(-6.659 -4)" fill="#be91e1"/><path d="M208.3,169.7l-2.57.765a36.235,36.235,0,0,1-47.645,44.181l-.959,2.505A38.919,38.919,0,0,0,208.3,169.7Z" transform="translate(-130.785 -141.925)" fill="#be91e1"/></svg>