<svg xmlns="http://www.w3.org/2000/svg" width="83.414" height="83.414" viewBox="0 0 83.414 83.414"><path d="M249.709,18.48h10.447a1.224,1.224,0,0,0,0-2.449H249.709a1.224,1.224,0,0,0,0,2.449Zm0,0" transform="translate(-208.002 -13.419)" fill="#be91e1"/><path d="M337.881,18.48H343.1a1.224,1.224,0,0,0,0-2.449h-5.224a1.224,1.224,0,0,0,0,2.449Zm0,0" transform="translate(-281.809 -13.419)" fill="#be91e1"/><path d="M249.709,50.543h5.224a1.224,1.224,0,1,0,0-2.449h-5.224a1.224,1.224,0,1,0,0,2.449Zm0,0" transform="translate(-208.002 -40.258)" fill="#be91e1"/><path d="M322.975,48.094h-9.141a1.224,1.224,0,0,0,0,2.449h9.141a1.224,1.224,0,1,0,0-2.449Zm0,0" transform="translate(-261.68 -40.258)" fill="#be91e1"/><path d="M249.709,82.605H269.3a1.224,1.224,0,1,0,0-2.449H249.709a1.224,1.224,0,1,0,0,2.449Zm0,0" transform="translate(-208.002 -67.097)" fill="#be91e1"/><path d="M76.966,14.365a6.457,6.457,0,0,0-6.33,5.224H58.683a1.225,1.225,0,0,0-1.161.837L52.864,34.4c-5.04-7.061-9.811-12.6-10.232-13.082a1.237,1.237,0,0,0-1.851,0c-.219.253-1.616,1.874-3.615,4.362L29.794,6.018a1.223,1.223,0,0,0-1.146-.794H12.778a6.448,6.448,0,1,0,0,2.449H27.8l7.537,20.1a1.185,1.185,0,0,0,.064.138c-1.933,2.476-4.183,5.477-6.407,8.706a1.222,1.222,0,0,0-.347-.051H12.977a1.225,1.225,0,0,0-1,.513L5.794,45.739a6.451,6.451,0,1,0,2.775.327l5.038-7.053H27.379c-4.824,7.32-9.1,15.382-9.1,20.976A23.426,23.426,0,0,0,61.019,73.25,1.224,1.224,0,1,0,59,71.863a20.994,20.994,0,0,1-16.07,9.066v-8.4L59.2,65.019A1.224,1.224,0,0,0,58.171,62.8L42.931,69.829V59.44l12.382-6.191a1.224,1.224,0,0,0-1.095-2.19L42.931,56.7V47.687l7.158-3.579a1.224,1.224,0,1,0-1.1-2.19l-6.063,3.031v-7.16a1.224,1.224,0,1,0-2.449,0v7.16l-6.064-3.032a1.225,1.225,0,0,0-1.1,2.19l7.159,3.579V56.7L29.2,51.059a1.224,1.224,0,0,0-1.1,2.19L40.482,59.44V69.829L25.243,62.8a1.224,1.224,0,0,0-1.026,2.224l16.265,7.507v8.4A21,21,0,0,1,20.731,59.989c0-10.27,16.807-31,20.976-35.976,4.169,4.98,20.976,25.7,20.976,35.976a20.9,20.9,0,0,1-1.343,7.4,1.224,1.224,0,1,0,2.291.865,23.343,23.343,0,0,0,1.5-8.268c0-6.14-5.147-15.253-10.52-23.094,0-.008.008-.016.01-.025l4.944-14.833H70.636a6.448,6.448,0,1,0,6.33-7.672ZM6.448,10.447a4,4,0,1,1,4-4A4,4,0,0,1,6.448,10.447Zm4,41.707a4,4,0,1,1-4-4h0A4,4,0,0,1,10.447,52.154ZM76.966,24.812a4,4,0,1,1,4-4A4,4,0,0,1,76.966,24.812Zm0,0" fill="#be91e1"/></svg>