<svg xmlns="http://www.w3.org/2000/svg" xmlns:xlink="http://www.w3.org/1999/xlink" width="11" height="11" viewBox="0 0 11 11">
  <defs>
    <clipPath id="clip-path">
      <rect width="11" height="136" fill="#9D6AD1"/>
    </clipPath>
  </defs>
  <g id="Markers" clip-path="url(#clip-path)">
    <g transform="translate(-423 -453)">
      <path id="Контур_94" data-name="Контур 94" d="M10.914.205A.7.7,0,0,0,10.386,0a18.622,18.622,0,0,0-1.9.2A25.373,25.373,0,0,0,4.7,1.062a12.51,12.51,0,0,0-1.835.708,5.031,5.031,0,0,0-1.4.933l-.009.009A4.956,4.956,0,0,0,.2,6.979,4.864,4.864,0,0,0,1.253,9.209L8.372,2.748,1.911,9.866A4.851,4.851,0,0,0,5.032,11h0a4.939,4.939,0,0,0,2.3-.57A4.287,4.287,0,0,0,8.5,9.569a6.077,6.077,0,0,0,.985-1.6,18.655,18.655,0,0,0,1.136-3.739,20.451,20.451,0,0,0,.5-3.5A.7.7,0,0,0,10.914.205Z" transform="translate(422.876 453)" fill="#9d6ad1"/>
    </g>
  </g>
</svg>
